<?xml version="1.0" standalone="no"?>
<!DOCTYPE svg PUBLIC "-//W3C//DTD SVG 20010904//EN"
 "http://www.w3.org/TR/2001/REC-SVG-20010904/DTD/svg10.dtd">
<svg version="1.0" xmlns="http://www.w3.org/2000/svg"
 width="830.000000pt" height="832.000000pt" viewBox="0 0 830.000000 832.000000"
 preserveAspectRatio="xMidYMid meet">

<g transform="translate(0.000000,832.000000) scale(0.100000,-0.100000)"
fill="#000000" stroke="none">
<path d="M0 4160 l0 -4160 4150 0 4150 0 0 4160 0 4160 -4150 0 -4150 0 0
-4160z m4157 2243 c-20 -2 -52 -2 -70 0 -17 2 0 4 38 4 39 0 53 -2 32 -4z
m-234 -10 c-7 -2 -19 -2 -25 0 -7 3 -2 5 12 5 14 0 19 -2 13 -5z m440 0 c-7
-2 -21 -2 -30 0 -10 3 -4 5 12 5 17 0 24 -2 18 -5z m-541 -15 c-9 -9 -15 -9
-24 0 -9 9 -7 12 12 12 19 0 21 -3 12 -12z m635 6 c-3 -3 -12 -4 -19 -1 -8 3
-5 6 6 6 11 1 17 -2 13 -5z m-688 -8 c-7 -7 -211 -47 -216 -43 -7 8 144 44
196 46 13 1 22 -1 20 -3z m748 -2 c-3 -3 -12 -4 -19 -1 -8 3 -5 6 6 6 11 1 17
-2 13 -5z m78 -14 c4 -6 -6 -7 -27 -3 -44 8 -48 13 -10 13 17 0 34 -4 37 -10z
m-1070 -40 c-3 -5 -25 -14 -48 -20 -151 -39 -417 -164 -583 -275 -115 -76
-269 -198 -269 -213 0 -4 -40 -56 -90 -116 -160 -192 -288 -398 -400 -644 -87
-190 -157 -383 -199 -542 -50 -193 -60 -279 -52 -445 10 -220 28 -312 92 -486
163 -443 149 -403 134 -394 -18 11 -10 -8 46 -109 271 -484 694 -848 1204
-1036 63 -23 122 -43 130 -45 8 -2 60 -15 115 -30 55 -14 126 -29 158 -32 32
-3 54 -10 50 -14 -18 -18 -339 59 -493 118 -304 115 -563 284 -800 522 -250
251 -424 524 -533 836 -19 55 -51 141 -71 191 -78 201 -101 455 -64 694 9 58
22 146 29 195 34 267 170 648 306 859 168 262 421 524 658 685 39 26 99 69
135 95 75 55 137 89 149 81 5 -2 35 7 67 21 67 30 302 113 322 114 7 0 10 -4
7 -10z m1321 -25 c10 -8 14 -15 8 -15 -5 0 -19 7 -30 15 -10 8 -14 15 -8 15 5
0 19 -7 30 -15z m-838 -2 c-10 -2 -26 -2 -35 0 -10 3 -2 5 17 5 19 0 27 -2 18
-5z m1007 -71 c-3 -3 -11 0 -18 7 -9 10 -8 11 6 5 10 -3 15 -9 12 -12z m-1458
2 c-3 -3 -12 -4 -19 -1 -8 3 -5 6 6 6 11 1 17 -2 13 -5z m-47 -11 c-64 -25
-123 -42 -114 -33 11 11 91 38 114 38 13 0 13 0 0 -5z m-140 -43 c-8 -5 -22
-9 -30 -9 -10 0 -8 3 5 9 27 12 43 12 25 0z m1796 -11 c8 -14 -10 -11 -32 6
-18 13 -18 14 4 8 12 -3 25 -9 28 -14z m-1441 -49 c-11 -5 -31 -8 -45 -8 -23
0 -22 1 5 8 42 11 65 11 40 0z m1565 -26 c0 -2 -9 0 -20 6 -11 6 -20 13 -20
16 0 2 9 0 20 -6 11 -6 20 -13 20 -16z m-1653 10 c-3 -3 -12 -4 -19 -1 -8 3
-5 6 6 6 11 1 17 -2 13 -5z m1759 -75 c3 -6 -5 -3 -20 6 -14 10 -26 19 -26 22
0 7 39 -17 46 -28z m-2216 -85 c-429 -211 -732 -493 -918 -859 -130 -254 -254
-702 -254 -914 0 -36 12 -180 27 -319 15 -140 25 -256 22 -258 -7 -7 -53 136
-73 226 -27 117 -24 389 4 550 54 303 128 520 252 744 136 243 344 475 575
637 126 89 441 255 490 258 6 0 -51 -29 -125 -65z m2460 -101 c325 -282 565
-669 680 -1097 16 -60 36 -116 43 -125 8 -9 17 -23 21 -31 4 -8 0 -6 -9 5 -17
19 -17 18 -11 -31 4 -28 17 -82 30 -120 32 -91 56 -223 54 -293 -1 -43 -2 -47
-5 -16 -7 91 -25 198 -39 233 -16 41 -16 56 2 -228 4 -57 2 -116 -4 -147 -6
-28 -19 -100 -27 -159 -86 -577 -406 -1121 -857 -1457 -73 -53 -130 -90 -73
-45 343 266 595 583 750 947 121 284 165 498 172 841 l5 235 -31 84 c-17 46
-42 103 -56 126 -27 48 -31 60 -14 49 6 -4 27 -39 45 -78 26 -56 33 -65 34
-43 0 15 -11 50 -25 77 -28 55 -33 84 -10 54 14 -18 15 -17 9 11 -99 479 -387
951 -778 1272 -96 78 -115 97 -56 57 30 -21 98 -75 150 -121z m665 -1371 c21
-64 18 -77 -5 -18 -11 27 -31 61 -45 76 -14 14 -25 33 -25 41 1 25 58 -52 75
-99z m-62 50 c22 -24 57 -103 56 -127 -1 -16 -2 -15 -8 6 -13 41 -31 72 -64
107 -22 22 -26 32 -16 32 9 0 23 -8 32 -18z m-2181 -52 c52 -19 138 -87 138
-109 0 -6 -27 -31 -61 -57 l-61 -46 -36 34 c-52 49 -90 62 -167 56 -82 -7
-119 -33 -153 -107 -23 -49 -26 -69 -26 -161 1 -151 31 -212 121 -246 50 -19
127 -15 186 10 36 15 37 16 37 70 l0 56 -80 0 -80 0 0 75 0 75 160 0 160 0 0
-180 0 -180 -50 -25 c-162 -82 -397 -75 -512 16 -85 68 -130 239 -108 415 19
152 70 240 170 295 80 43 260 48 362 9z m-736 -372 c70 -211 129 -389 132
-396 3 -10 -15 -12 -84 -10 l-88 3 -23 78 -24 78 -151 -3 -152 -3 -25 -77 -25
-78 -82 0 -83 0 50 148 c27 81 86 258 130 395 l80 247 109 0 108 0 128 -382z
m1204 62 l0 -320 165 0 165 0 0 -75 0 -75 -250 0 -250 0 0 395 0 395 85 0 85
0 0 -320z m629 193 c42 -68 78 -123 81 -123 3 0 41 56 84 125 l80 125 93 0 93
0 -129 -194 -130 -194 93 -144 c51 -78 109 -169 129 -200 l37 -58 -94 0 -94 0
-79 128 c-44 70 -84 127 -89 127 -4 0 -44 -57 -88 -127 l-79 -128 -90 0 c-73
0 -88 3 -84 14 3 8 60 96 126 195 67 99 121 185 121 190 0 4 -23 44 -52 87
-28 44 -84 130 -125 192 l-73 113 97 -3 97 -3 75 -122z m1088 82 c28 -49 30
-72 3 -27 -11 18 -31 38 -45 44 -31 14 -33 31 -3 26 14 -2 31 -18 45 -43z
m200 -17 c-3 -8 -6 -5 -6 6 -1 11 2 17 5 13 3 -3 4 -12 1 -19z m-234 -16 c17
-18 48 -96 46 -116 0 -6 -7 7 -15 28 -8 22 -26 54 -40 73 -26 34 -19 46 9 15z
m114 -24 c-3 -8 -6 -5 -6 6 -1 11 2 17 5 13 3 -3 4 -12 1 -19z m130 0 c-3 -8
-6 -5 -6 6 -1 11 2 17 5 13 3 -3 4 -12 1 -19z m-290 -10 c-3 -8 -6 -5 -6 6 -1
11 2 17 5 13 3 -3 4 -12 1 -19z m121 -29 c-3 -8 -7 -3 -11 10 -4 17 -3 21 5
13 5 -5 8 -16 6 -23z m30 -144 l-1 -70 -7 73 c-5 40 -11 79 -14 87 -3 8 -2 30
1 48 7 31 8 30 14 -18 4 -27 7 -81 7 -120z m-161 23 c-2 -24 -4 -7 -4 37 0 44
2 63 4 43 2 -21 2 -57 0 -80z m190 40 c-3 -7 -5 -2 -5 12 0 14 2 19 5 13 2 -7
2 -19 0 -25z m140 -35 c-3 -10 -5 -4 -5 12 0 17 2 24 5 18 2 -7 2 -21 0 -30z
m-320 -130 c-2 -16 -4 -3 -4 27 0 30 2 43 4 28 2 -16 2 -40 0 -55z m330 -155
c-1 -46 -3 -11 -3 77 0 88 2 125 3 83 2 -42 2 -114 0 -160z m-40 100 c-2 -13
-4 -5 -4 17 -1 22 1 32 4 23 2 -10 2 -28 0 -40z m-10 -125 c-2 -21 -4 -6 -4
32 0 39 2 55 4 38 2 -18 2 -50 0 -70z m-270 -5 c-2 -18 -4 -4 -4 32 0 36 2 50
4 33 2 -18 2 -48 0 -65z m70 -50 c-3 -7 -5 -2 -5 12 0 14 2 19 5 13 2 -7 2
-19 0 -25z m190 -35 c-3 -10 -5 -2 -5 17 0 19 2 27 5 18 2 -10 2 -26 0 -35z
m-200 -15 c-3 -7 -5 -2 -5 12 0 14 2 19 5 13 2 -7 2 -19 0 -25z m-70 -25 c-3
-10 -5 -2 -5 17 0 19 2 27 5 18 2 -10 2 -26 0 -35z m320 -5 c-2 -13 -4 -5 -4
17 -1 22 1 32 4 23 2 -10 2 -28 0 -40z m-60 -10 c-3 -8 -6 -5 -6 6 -1 11 2 17
5 13 3 -3 4 -12 1 -19z m-270 -50 c-3 -7 -5 -2 -5 12 0 14 2 19 5 13 2 -7 2
-19 0 -25z m300 -110 c-3 -7 -5 -2 -5 12 0 14 2 19 5 13 2 -7 2 -19 0 -25z
m-10 -40 c-3 -8 -6 -5 -6 6 -1 11 2 17 5 13 3 -3 4 -12 1 -19z m-13 -52 c-3
-15 -8 -25 -11 -23 -2 3 -1 17 3 31 3 15 8 25 11 23 2 -3 1 -17 -3 -31z m-73
-203 c-12 -20 -14 -14 -5 12 4 9 9 14 11 11 3 -2 0 -13 -6 -23z m-20 -46 c-10
-9 -11 -8 -5 6 3 10 9 15 12 12 3 -3 0 -11 -7 -18z m-35 -76 c-15 -28 -28 -51
-31 -51 -3 0 7 25 22 55 15 30 29 53 31 51 2 -2 -8 -27 -22 -55z m-53 -89
c-32 -51 -58 -79 -83 -91 -17 -9 -13 -3 12 18 20 17 46 47 58 66 12 19 24 35
27 35 3 0 -3 -13 -14 -28z m-888 -832 c-3 -5 -12 -10 -18 -10 -7 0 -6 4 3 10
19 12 23 12 15 0z m-105 -64 c0 -2 -7 -7 -16 -10 -8 -3 -12 -2 -9 4 6 10 25
14 25 6z m-40 -20 c0 -3 -4 -8 -10 -11 -5 -3 -10 -1 -10 4 0 6 5 11 10 11 6 0
10 -2 10 -4z m-80 -41 c0 -2 -10 -9 -22 -15 -22 -11 -22 -10 -4 4 21 17 26 19
26 11z m-155 -75 c-3 -5 -14 -10 -23 -9 -14 0 -13 2 3 9 27 11 27 11 20 0z
m-149 -55 c-11 -8 -22 -12 -25 -9 -6 6 19 24 34 24 6 -1 1 -7 -9 -15z m-46 -9
c0 -2 -7 -7 -16 -10 -8 -3 -12 -2 -9 4 6 10 25 14 25 6z m-260 -66 c-19 -13
-30 -13 -30 0 0 6 10 10 23 10 18 0 19 -2 7 -10z m-65 -10 c-11 -5 -27 -9 -35
-9 -13 -1 -13 0 0 9 8 5 24 9 35 9 l20 0 -20 -9z m-538 -16 c-3 -3 -12 -4 -19
-1 -8 3 -5 6 6 6 11 1 17 -2 13 -5z m426 -1 c-7 -2 -19 -2 -25 0 -7 3 -2 5 12
5 14 0 19 -2 13 -5z"/>
<path d="M3105 6180 c-3 -6 1 -7 9 -4 18 7 21 14 7 14 -6 0 -13 -4 -16 -10z"/>
<path d="M2579 5773 l-34 -38 38 34 c20 19 37 36 37 38 0 8 -8 0 -41 -34z"/>
<path d="M3037 4147 c-26 -79 -47 -146 -47 -150 0 -4 44 -7 99 -7 l99 0 -45
143 c-25 78 -48 145 -52 149 -4 4 -28 -57 -54 -135z"/>
</g>
</svg>
